<?xml version="1.0" encoding="UTF-8"?>
<svg version="1.1" xmlns="http://www.w3.org/2000/svg" width="2284" height="605">
<path d="M0 0 C753.72 0 1507.44 0 2284 0 C2284 199.65 2284 399.3 2284 605 C1530.28 605 776.56 605 0 605 C0 405.35 0 205.7 0 0 Z " fill="none" transform="translate(0,0)"/>
<path d="M0 0 C1.58689363 -0.00043698 3.1737872 -0.00131421 4.76068038 -0.00258917 C9.0867194 -0.00480929 13.41273334 -0.00084712 17.73876917 0.0041889 C22.41683931 0.00852912 27.09490816 0.00704445 31.77297974 0.00628662 C39.86659896 0.00576364 47.96021009 0.00888679 56.05382729 0.01452446 C67.7556721 0.02267014 79.45751303 0.02525782 91.15936037 0.02651245 C110.14731404 0.02869815 129.13526339 0.03534517 148.12321472 0.04481506 C166.56234211 0.05400165 185.00146832 0.06107638 203.44059753 0.06532288 C205.14702289 0.06571696 205.14702289 0.06571696 206.88792149 0.06611901 C212.59531845 0.0674241 218.30271543 0.06868779 224.0101124 0.06993091 C271.31824259 0.08028852 318.62636809 0.09789372 365.93449402 0.12025452 C364.33072324 4.37997707 362.34075389 7.4189421 359.49699402 10.99525452 C358.58535654 12.15555058 357.67525549 13.31705512 356.76652527 14.47962952 C356.29682312 15.07968811 355.82712097 15.6797467 355.34318542 16.29798889 C353.06863449 19.2403196 350.87502685 22.24011729 348.68449402 25.24525452 C348.0096698 26.16939148 348.0096698 26.16939148 347.32121277 27.11219788 C346.36833376 28.41727817 345.41570471 29.72254099 344.46330261 31.02796936 C336.87490796 41.41323639 329.22778534 51.75411771 321.49577332 62.03285217 C317.40463915 67.47811822 313.35140051 72.95086697 309.30949402 78.43275452 C308.70492371 79.25195374 308.10035339 80.07115295 307.47746277 80.91517639 C306.91414246 81.68023499 306.35082214 82.44529358 305.77043152 83.23353577 C305.27075867 83.91198547 304.77108582 84.59043518 304.25627136 85.28944397 C303.11236148 86.87388804 302.01850265 88.49424157 300.93449402 90.12025452 C298.50196648 90.489398 298.50196648 90.489398 295.37904358 90.48101807 C294.19831268 90.48514206 293.01758179 90.48926605 291.80107117 90.49351501 C289.8482019 90.47733627 289.8482019 90.47733627 287.85588074 90.46083069 C286.47629312 90.45998481 285.09670414 90.46045878 283.71711731 90.4621582 C279.96517171 90.46302115 276.21351215 90.44534737 272.46163321 90.42443633 C268.54318779 90.40571911 264.62473627 90.40392301 260.70625305 90.40036011 C253.28306947 90.39102503 245.86001797 90.36639156 238.43689263 90.33631164 C229.98720702 90.30281304 221.53751521 90.28629307 213.08777976 90.27122533 C195.70327469 90.23984319 178.31889831 90.1870544 160.93449402 90.12025452 C160.9372594 91.36762547 160.94002478 92.61499643 160.94287395 93.90016651 C161.00790417 123.53710248 161.0573439 153.17401998 161.08769001 182.81100984 C161.09144195 186.46202447 161.09532493 190.11303894 161.09928894 193.76405334 C161.10007587 194.49087793 161.1008628 195.21770252 161.10167358 195.9665521 C161.11471313 207.72175596 161.13835894 219.47691563 161.16595241 231.23209331 C161.19404705 243.30180612 161.21067885 255.37149585 161.2167595 267.44124001 C161.22049973 274.2173413 161.22946523 280.99335058 161.25168419 287.76941872 C161.27208948 294.15102227 161.27831957 300.53248473 161.27381706 306.91411781 C161.27464045 309.25255094 161.28058182 311.59098892 161.29211044 313.92939377 C161.30711762 317.13119093 161.30341748 320.33246093 161.29525757 323.53427124 C161.30399609 324.45162137 161.31273462 325.3689715 161.32173795 326.31412011 C161.18796509 345.83982403 150.79367635 361.39252013 137.93449402 375.12025452 C136.79579753 376.35400626 135.6577856 377.58839015 134.52043152 378.82337952 C132.3016432 381.22524246 130.07306617 383.61744054 127.83683777 386.00306702 C125.02135786 389.01380392 122.28988525 392.08789179 119.59855652 395.21009827 C117.61909276 397.48229962 115.58866232 399.70485324 113.55949402 401.93275452 C110.44920551 405.37403657 107.4697109 408.88346749 104.55949402 412.49525452 C100.87618162 417.0512681 97.00297095 421.36102942 93.014328 425.64588928 C90.08328547 428.81341307 87.31436208 432.06105055 84.62199402 435.43275452 C80.74944126 440.24346668 76.64128608 444.79064712 72.43449402 449.30775452 C71.81018494 449.98040344 71.18587585 450.65305237 70.54264832 451.34608459 C69.9603949 451.96636536 69.37814148 452.58664612 68.77824402 453.22572327 C68.25424011 453.78412903 67.73023621 454.34253479 67.19035339 454.91786194 C65.93449402 456.12025452 65.93449402 456.12025452 64.93449402 456.12025452 C64.93449402 335.34025452 64.93449402 214.56025452 64.93449402 90.12025452 C6.52449402 90.12025452 -51.88550598 90.12025452 -112.06550598 90.12025452 C-110.5210122 86.25902006 -109.60263286 84.22800798 -107.15925598 81.15150452 C-106.5855426 80.42245911 -106.01182922 79.6934137 -105.42073059 78.942276 C-104.80850647 78.17600891 -104.19628235 77.40974182 -103.56550598 76.62025452 C-102.28528567 74.99677136 -101.00533901 73.37307238 -99.72566223 71.74916077 C-99.09804993 70.95654846 -98.47043762 70.16393616 -97.82380676 69.3473053 C-95.52528909 66.43601979 -93.26118511 63.50045582 -91.00300598 60.55775452 C-90.21796692 59.53552795 -89.43292786 58.51330139 -88.62409973 57.46009827 C-85.60108466 53.51614882 -82.58353559 49.56801926 -79.56550598 45.62025452 C-78.46004413 44.17493674 -77.35457546 42.72962418 -76.24909973 41.28431702 C-74.23880912 38.65598765 -72.23115658 36.02568213 -70.22566223 33.39369202 C-67.85697078 30.28844325 -65.463589 27.2028732 -63.06550598 24.12025452 C-62.56148254 23.44736389 -62.05745911 22.77447327 -61.53816223 22.08119202 C-53.36925197 11.71022769 -39.42899418 2.60279877 -26.20062143 0.71041971 C-17.46292109 0.10683874 -8.75407861 -0.01812734 0 0 Z " fill="#ffffff" transform="translate(187.0655059814453,79.87974548339844)"/>
<path d="M0 0 C-0.28875 1.216875 -0.5775 2.43375 -0.875 3.6875 C-1.7105285 7.42416912 -2.33627542 11.14718775 -2.875 14.9375 C-4.75301672 27.45761149 -7.82438435 39.64411326 -11.35253906 51.78930664 C-12.67807518 56.46861509 -13.41666106 60.86989743 -13.67434692 65.73794556 C-14.02117627 68.14709482 -14.69364598 69.63427582 -15.87451172 71.74755859 C-18.02288678 75.86725731 -19.296001 79.92654267 -20.4453125 84.4140625 C-20.65687485 85.2105571 -20.86843719 86.0070517 -21.08641052 86.8276825 C-21.77411572 89.42471016 -22.44950815 92.02477174 -23.125 94.625 C-23.60325015 96.43796465 -24.08234767 98.25070596 -24.56225586 100.06323242 C-26.05331123 105.7057552 -27.52830614 111.35240069 -29 117 C-29.48419885 118.85726261 -29.96841094 120.71452176 -30.45263672 122.57177734 C-30.80618225 123.92813293 -30.80618225 123.92813293 -31.16687012 125.31188965 C-32.07962576 128.81118183 -32.99483202 132.30983182 -33.90985107 135.80853271 C-34.553084 138.27637436 -35.19023357 140.74572762 -35.82666016 143.21533203 C-36.2189126 144.72302417 -36.61131936 146.23067617 -37.00390625 147.73828125 C-37.17740097 148.41871994 -37.35089569 149.09915863 -37.52964783 149.80021667 C-38.38691296 153.07229988 -39.32968682 156.04934633 -41 159 C-45.65966525 154.79430949 -48.73172515 150.01711064 -52 144.6875 C-52.50789063 143.87087891 -53.01578125 143.05425781 -53.5390625 142.21289062 C-54.54318203 140.59728805 -55.54455257 138.97997321 -56.54296875 137.36083984 C-58.68024238 133.89779761 -60.83980962 130.4487774 -63 127 C-66.55095777 128.65995353 -68.5854939 130.47528905 -71.1875 133.4375 C-71.97640625 134.3346875 -72.7653125 135.231875 -73.578125 136.15625 C-76.67550793 139.79317705 -79.67978372 143.50056735 -82.68359375 147.21484375 C-85.8421014 151.01250978 -89.19043906 154.6205848 -92.53515625 158.25390625 C-94.92707297 160.91875166 -97.19254884 163.64831825 -99.4375 166.4375 C-103.09571015 170.97316443 -106.94742965 175.2570117 -110.91381836 179.51928711 C-113.90427 182.75193975 -116.73779007 186.06696766 -119.5 189.5 C-122.74529355 193.53044521 -126.11471548 197.38976099 -129.625 201.1875 C-130.33052002 201.95126953 -130.33052002 201.95126953 -131.05029297 202.73046875 C-132.36664199 204.15384931 -133.68331188 205.57693311 -135 207 C-139.99819514 212.45166042 -144.44241954 218.18152727 -148.7890625 224.16796875 C-151.0132162 227.01692887 -153.41497752 229.47938838 -156 232 C-156.66 232.825 -157.32 233.65 -158 234.5 C-160.16938522 237.21173153 -162.54322417 239.54322417 -165 242 C-169.61901444 246.96116365 -174.06381297 252.03055696 -178.3125 257.3125 C-182.20191158 262.1250529 -186.3274325 266.6459852 -190.5534668 271.15893555 C-194.49790439 275.39494858 -198.16480701 279.80634808 -201.7890625 284.3203125 C-204.90245797 288.09379181 -208.22633515 291.65968095 -211.5390625 295.2578125 C-213.91039895 297.90015883 -216.15252997 300.60694167 -218.375 303.375 C-222.24154184 308.1706049 -226.34851983 312.66878667 -230.5559082 317.16137695 C-234.47892724 321.37411123 -238.11903719 325.76404453 -241.72265625 330.25390625 C-244.21826626 333.26319242 -246.83768467 336.13935389 -249.5 339 C-253.80679817 343.62896905 -257.84401662 348.41467241 -261.8125 353.33984375 C-264.7312629 356.88926792 -267.80364439 360.2841502 -270.89453125 363.68359375 C-279.19150095 372.81179974 -287.1219885 382.27862125 -295.125 391.6640625 C-299.58867561 396.89316218 -304.05980596 402.10185707 -308.6875 407.1875 C-311.71712868 410.52227114 -314.60608092 413.93287639 -317.4375 417.4375 C-321.30291314 422.21716738 -325.38386047 426.74505093 -329.546875 431.265625 C-331.87716268 433.86307942 -334.07247168 436.52405714 -336.25 439.25 C-344.63891487 449.58395531 -353.35106872 460.26820554 -365 467 C-365.73863281 467.45503906 -366.47726562 467.91007812 -367.23828125 468.37890625 C-381.46350077 476.38806346 -397.49638296 476.56821409 -413.34765625 476.390625 C-415.34117559 476.38314265 -417.33470241 476.37745918 -419.32823181 476.37347412 C-424.51499597 476.35837453 -429.70129504 476.31923252 -434.88787842 476.2746582 C-440.2044852 476.23336258 -445.52116888 476.21539069 -450.83789062 476.1953125 C-461.2254621 476.15271929 -471.61269202 476.08466388 -482 476 C-480.38182825 472.59170063 -478.52234036 470.20469242 -475.9375 467.4375 C-472.76214883 463.97439841 -469.70171816 460.46804744 -466.75 456.8125 C-461.5550165 450.39994224 -456.13860278 444.1897316 -450.71582031 437.97021484 C-447.84506889 434.67383408 -444.98587014 431.3674554 -442.125 428.0625 C-438.8865335 424.32303428 -435.64409574 420.58775874 -432.375 416.875 C-428.9986727 413.02582096 -425.69990203 409.11160724 -422.39794922 405.19873047 C-418.45199356 400.52536042 -414.47451999 395.87974662 -410.48828125 391.24072266 C-407.54215208 387.80897828 -404.614838 384.36242556 -401.70263672 380.90185547 C-397.99458561 376.49569569 -394.25184778 372.13482927 -390.375 367.875 C-386.50132754 363.61533882 -382.87046906 359.19405203 -379.25 354.71875 C-376.35642111 351.22234218 -373.30650817 347.88491868 -370.25 344.53125 C-367.92137947 341.9115519 -365.70437053 339.2248469 -363.5 336.5 C-359.88617469 332.03291037 -356.1087352 327.76432962 -352.23828125 323.51953125 C-349.97152842 320.96795083 -347.82459913 318.34828468 -345.6875 315.6875 C-341.70868094 310.76301092 -337.49706801 306.11069958 -333.16088867 301.50268555 C-330.91354656 299.10819827 -328.78043866 296.7162237 -326.76953125 294.1171875 C-326.18558594 293.41851562 -325.60164062 292.71984375 -325 292 C-324.34 292 -323.68 292 -323 292 C-325.66772557 286.7757041 -328.85032621 282.75665477 -332.8046875 278.4375 C-335.86284507 275.04196562 -338.71237243 271.49012302 -341.58984375 267.94140625 C-344.14588952 264.8219533 -346.75557277 261.7535939 -349.375 258.6875 C-353.77600505 253.52682067 -357.98706534 248.23888187 -362.15136719 242.88623047 C-365.07814525 239.13662531 -368.10227719 235.51564021 -371.2734375 231.96875 C-374.12272134 228.71979286 -376.81721154 225.34482243 -379.54296875 221.9921875 C-382.18253588 218.7777067 -384.86664912 215.60471843 -387.5625 212.4375 C-390.74920999 208.69151667 -393.88791254 204.92193641 -396.9375 201.0625 C-400.19252601 196.95194354 -403.57499034 192.96851034 -407 189 C-411.09703247 184.25201932 -415.0962248 179.45163011 -418.9765625 174.5234375 C-420.5300686 172.58605345 -422.10442303 170.68177579 -423.7109375 168.7890625 C-424.1735498 168.24266113 -424.63616211 167.69625977 -425.11279297 167.13330078 C-426.4360593 165.57528392 -427.76476966 164.0218957 -429.09375 162.46875 C-431 160 -431 160 -431 158 C-419.30784928 157.90709397 -407.61578719 157.83613053 -395.92334175 157.79275131 C-390.49335769 157.77192564 -385.06362721 157.74369987 -379.63378906 157.69824219 C-374.38827923 157.65460524 -369.14301247 157.63082518 -363.89733505 157.62049103 C-361.90156099 157.61313163 -359.90579941 157.59876073 -357.91012955 157.57707977 C-334.08357583 157.32865199 -334.08357583 157.32865199 -324.8125 166.3125 C-323.98492187 167.10527344 -323.15734375 167.89804688 -322.3046875 168.71484375 C-321.54414063 169.46894531 -320.78359375 170.22304687 -320 171 C-319.38382813 171.57878906 -318.76765625 172.15757812 -318.1328125 172.75390625 C-313.86967213 176.83041144 -310.20873558 181.32965075 -306.51171875 185.91796875 C-303.7684052 189.28418087 -300.95842065 192.58470787 -298.125 195.875 C-297.10151944 197.06506714 -296.07808207 198.25517141 -295.0546875 199.4453125 C-294.29430176 200.32944824 -294.29430176 200.32944824 -293.51855469 201.23144531 C-273.47014397 224.5804304 -273.47014397 224.5804304 -271 230 C-266.03883698 225.2372835 -261.65702538 219.94251029 -257.1953125 214.71875 C-256.17191502 213.52079915 -255.14847645 212.32288339 -254.125 211.125 C-253.60574951 210.51696533 -253.08649902 209.90893066 -252.55151367 209.2824707 C-249.52191849 205.74470978 -246.44894326 202.2565454 -243.3125 198.8125 C-240.30185521 195.4991692 -237.43434822 192.11058071 -234.625 188.625 C-230.94298465 184.07059077 -227.07099643 179.76252435 -223.08422852 175.47875977 C-220.1131325 172.26736593 -217.30053412 168.97390237 -214.5625 165.5625 C-210.71954521 160.78458662 -206.63168671 156.31005016 -202.44384766 151.83837891 C-198.52093146 147.62570895 -194.88088976 143.23586445 -191.27734375 138.74609375 C-188.33856664 135.20242256 -185.21637652 131.84397498 -182.08129883 128.47583008 C-179.13053653 125.28658081 -176.33999777 122.01626095 -173.625 118.625 C-169.01826989 112.89972931 -164.03187133 107.57819937 -159.0078125 102.22265625 C-156.15899861 99.18339485 -153.39729583 96.07949665 -150.67578125 92.92578125 C-147.87960802 89.71246329 -145.00781887 86.56718653 -142.1484375 83.41015625 C-140.23806161 81.26706185 -138.39355335 79.08566197 -136.5625 76.875 C-135.716875 75.92625 -134.87125 74.9775 -134 74 C-133.34 74 -132.68 74 -132 74 C-132 72.68 -132 71.36 -132 70 C-133.32 69.67 -134.64 69.34 -136 69 C-136 68.34 -136 67.68 -136 67 C-136.928125 66.814375 -137.85625 66.62875 -138.8125 66.4375 C-142.421842 65.4280462 -145.14552373 63.70504364 -148.25 61.625 C-152.87566868 58.54972786 -157.29918927 56.57374356 -162.58984375 54.921875 C-165.15584096 53.94039146 -166.96086786 52.83569204 -169 51 C-169 50.34 -169 49.68 -169 49 C-170.65 48.34 -172.3 47.68 -174 47 C-173 45 -173 45 -169.30859375 43.6328125 C-167.68784095 43.12079079 -166.06387285 42.61887976 -164.4375 42.125 C-163.5719751 41.85743896 -162.7064502 41.58987793 -161.81469727 41.31420898 C-155.44204445 39.37180521 -149.04605857 37.68634297 -142.56640625 36.13671875 C-138.92815129 35.25277359 -135.32225119 34.27179742 -131.71484375 33.26953125 C-130.58828369 32.95814209 -129.46172363 32.64675293 -128.30102539 32.32592773 C-126.08607338 31.71114557 -123.87287487 31.08999473 -121.66186523 30.46118164 C-116.3312463 28.98923611 -111.16116952 27.8301152 -105.66796875 27.171875 C-95.03342016 25.77321025 -84.76946455 22.68224032 -74.4375 19.875 C-72.23901434 19.28389705 -70.04036394 18.69340646 -67.84155273 18.10351562 C-61.55769576 16.41455727 -55.27804347 14.71042754 -49 13 C-48.17101196 12.77429321 -47.34202393 12.54858643 -46.48791504 12.31604004 C-35.7551728 9.39182424 -25.03703913 6.41648588 -14.328125 3.40625 C-13.47017334 3.16583984 -12.61222168 2.92542969 -11.72827148 2.67773438 C-10.18277613 2.24415225 -8.63794732 1.80818267 -7.09399414 1.36914062 C-2.22213542 0 -2.22213542 0 0 0 Z " fill="#52AA8B" transform="translate(811,53)"/>
<path d="M0 0 C10.23 0 20.46 0 31 0 C31 65.01 31 130.02 31 197 C21.43 197 11.86 197 2 197 C2 191.39 2 185.78 2 180 C0.865625 181.03125 -0.26875 182.0625 -1.4375 183.125 C-18.74616019 198.13390814 -36.72990759 200.52351406 -59 199 C-74.00426096 196.75580968 -86.41059234 187.29219967 -96 176 C-108.49242819 158.18061186 -109.29533987 141.93804202 -109 121 C-108.99484375 119.79859375 -108.9896875 118.5971875 -108.984375 117.359375 C-108.66122031 108.91118803 -105.5021466 101.58681458 -102 94 C-101.71020264 93.33943604 -101.42040527 92.67887207 -101.12182617 91.99829102 C-98.79277489 86.95211384 -95.92241515 83.2860425 -91.9375 79.4375 C-91.36531738 78.87812744 -90.79313477 78.31875488 -90.20361328 77.74243164 C-74.8373234 63.09357591 -58.66509041 60.48167556 -38.17578125 60.72265625 C-24.78703539 61.12679169 -11.67318758 66.58824992 -2 76 C-2 76.66 -2 77.32 -2 78 C-1.34 78 -0.68 78 0 78 C0 52.26 0 26.52 0 0 Z " fill="#ffffff" transform="translate(1375,182)"/>
<path d="M0 0 C4.45348036 3.83369902 7.996946 7.66231023 11.125 12.625 C11.89263672 13.71748047 11.89263672 13.71748047 12.67578125 14.83203125 C24.02441891 32.71387968 23.36279078 59.15426968 19.05859375 79.171875 C17.79659276 83.83969455 16.19395777 88.25603333 14.125 92.625 C13.465 92.625 12.805 92.625 12.125 92.625 C11.75761719 93.9553125 11.75761719 93.9553125 11.3828125 95.3125 C7.30662821 106.04729589 -4.08487313 113.67825219 -14.09765625 118.4609375 C-30.39183861 125.29028538 -49.95152379 127.73015015 -66.875 121.625 C-73.36425367 118.95351163 -79.75739038 115.49959464 -84.875 110.625 C-84.875 109.965 -84.875 109.305 -84.875 108.625 C-85.535 108.625 -86.195 108.625 -86.875 108.625 C-86.875 132.385 -86.875 156.145 -86.875 180.625 C-96.445 180.625 -106.015 180.625 -115.875 180.625 C-115.94287346 162.33501558 -115.99807257 144.04513406 -116.03043652 125.75505543 C-116.04586697 117.26154363 -116.06688287 108.76811597 -116.10131836 100.2746582 C-116.13133832 92.86671488 -116.15060274 85.45883254 -116.15726548 78.05083007 C-116.16115654 74.13291378 -116.17022008 70.21517186 -116.19219017 66.29731178 C-116.21275506 62.59961206 -116.21879405 58.90215632 -116.21432304 55.20440483 C-116.21552473 53.22089375 -116.23156109 51.23740843 -116.2482605 49.25396729 C-116.1893101 31.91931239 -111.44265202 16.46833747 -99.203125 3.8125 C-93.54374802 -1.50503542 -88.1742825 -5.67156204 -80.875 -8.375 C-79.740625 -8.890625 -78.60625 -9.40625 -77.4375 -9.9375 C-52.82668932 -19.86817799 -20.82451585 -16.28404268 0 0 Z " fill="#68D7AF" transform="translate(1856.875,257.375)"/>
<path d="M0 0 C5.7978073 -0.3235469 11.59028087 -0.55817315 17.39501953 -0.71411133 C19.36470092 -0.77914341 21.33376288 -0.86761327 23.30126953 -0.98071289 C39.10924413 -1.86605561 39.10924413 -1.86605561 43.81542969 1.17190552 C47.42207377 4.57652918 49.65830208 8.6713415 52 13 C53.08912571 14.58829555 54.19607812 16.16466157 55.328125 17.72265625 C56.30578543 19.16677144 57.27972458 20.61341263 58.25 22.0625 C59.35569756 23.69734099 60.46250715 25.33143032 61.5703125 26.96484375 C62.13137695 27.79226074 62.69244141 28.61967773 63.27050781 29.47216797 C66.17750612 33.7210472 69.15581474 37.91946813 72.125 42.125 C77.15656468 49.25724293 81.99455984 56.48596071 86.62548828 63.88525391 C88.73837964 67.52569614 88.73837964 67.52569614 92 70 C92.22945312 69.48824219 92.45890625 68.97648437 92.6953125 68.44921875 C94.4999314 65.06150603 96.68738604 61.9593191 98.875 58.8125 C99.3604126 58.1105249 99.8458252 57.4085498 100.34594727 56.68530273 C106.34251807 48.03169527 112.43301901 39.44422431 118.52050781 30.85449219 C120.03539082 28.71612035 121.54895816 26.57682124 123.0625 24.4375 C123.71303345 23.52109741 123.71303345 23.52109741 124.37670898 22.58618164 C124.82087158 21.95832764 125.26503418 21.33047363 125.72265625 20.68359375 C126.22514893 20.00796387 126.7276416 19.33233398 127.24536133 18.63623047 C128.71439525 16.42910256 129.87310052 14.30625954 131.05737305 11.94580078 C136.84738118 1.14646398 136.84738118 1.14646398 142.29611206 -0.83499146 C148.74603934 -1.99010112 155.19091533 -1.46166964 161.6875 -1 C163.66051741 -0.91962081 165.63385076 -0.84663793 167.60742188 -0.78125 C172.41283261 -0.60604777 177.20289866 -0.3309004 182 0 C180.79817679 3.24080493 179.50977545 5.94707169 177.453125 8.72265625 C176.94523437 9.41552734 176.43734375 10.10839844 175.9140625 10.82226562 C175.09035156 11.93118164 175.09035156 11.93118164 174.25 13.0625 C173.06636045 14.67739835 171.8841176 16.29332115 170.703125 17.91015625 C170.09146484 18.74691895 169.47980469 19.58368164 168.84960938 20.44580078 C165.84624727 24.59326307 162.92411842 28.79647739 160 33 C151.16082619 45.6748573 142.09373709 58.17774897 132.9375 70.625 C132.07402954 71.8018335 132.07402954 71.8018335 131.19311523 73.00244141 C128.31493356 76.91222506 125.40274529 80.78714634 122.4140625 84.61328125 C121.84953369 85.34272949 121.28500488 86.07217773 120.70336914 86.82373047 C119.63523635 88.19970036 118.55675932 89.56772236 117.46655273 90.92626953 C114.75841533 94.09241134 114.75841533 94.09241134 114.24707031 98.00219727 C115.50348675 101.33593778 117.64137676 104.1123836 119.6875 107 C120.17154297 107.69279053 120.65558594 108.38558105 121.15429688 109.09936523 C122.2076127 110.60560021 123.26355128 112.11000368 124.32177734 113.61279297 C126.04225467 116.06010565 127.75083448 118.51536977 129.45703125 120.97265625 C135.19104711 129.21842985 140.9842553 137.41009831 146.95483398 145.48632812 C151.42635022 151.5457291 155.75535112 157.70277051 160.0859375 163.86328125 C162.76555471 167.6739976 165.47296506 171.46412009 168.1875 175.25 C169.79437774 177.49807599 171.39818551 179.74831385 173 182 C173.43038574 182.60457031 173.86077148 183.20914063 174.30419922 183.83203125 C175.58328297 185.63422563 176.85519816 187.44125744 178.125 189.25 C178.87007812 190.30703125 179.61515625 191.3640625 180.3828125 192.453125 C182 195 182 195 182 197 C176.23909484 197.39910348 170.48638411 197.68728804 164.71484375 197.87890625 C162.75833978 197.95881616 160.80277502 198.06761337 158.84960938 198.20703125 C143.15206096 199.29847633 143.15206096 199.29847633 137.98684692 195.53201294 C134.32317877 191.79602037 131.65415488 187.51456898 129.10980225 182.96563721 C127.69341071 180.45698135 126.05374996 178.14477507 124.37109375 175.80859375 C123.39002801 174.35371602 122.4120786 172.89673122 121.4375 171.4375 C116.59280513 164.27001625 111.58314809 157.25525178 106.43359375 150.3046875 C103.73901289 146.66381417 101.15136607 142.95242282 98.5703125 139.23046875 C96.12699114 135.75997996 93.57342686 132.37467698 91 129 C87.33222917 130.22259028 87.10737125 131.05530418 85.1875 134.3125 C81.79415416 139.83025142 78.16674162 145.14136303 74.4375 150.4375 C73.83599121 151.29287354 73.23448242 152.14824707 72.61474609 153.02954102 C71.36917614 154.79931152 70.1229111 156.56859302 68.87597656 158.33740234 C65.84716044 162.63624001 62.82953936 166.94289298 59.8125 171.25 C59.29163818 171.9917749 58.77077637 172.7335498 58.23413086 173.49780273 C57.44727905 174.62037476 57.44727905 174.62037476 56.64453125 175.765625 C56.0714624 176.54615234 55.49839355 177.32667969 54.90795898 178.13085938 C53.3649752 180.4511595 52.14469093 182.65480446 50.90649414 185.13476562 C45.18552476 195.86789857 45.18552476 195.86789857 39.66671753 197.82922363 C33.0616711 198.98937212 26.46369102 198.46114054 19.8125 198 C17.79129843 197.91962511 15.76978867 197.8466415 13.74804688 197.78125 C8.82434381 197.60601183 3.91560026 197.33082406 -1 197 C0.29296002 193.64913862 1.5195746 191.08142511 3.8125 188.3125 C7.39755138 183.82933016 10.77510502 179.22197158 14.125 174.5625 C14.6828418 173.78696777 15.24068359 173.01143555 15.81542969 172.21240234 C16.96862834 170.60833642 18.12145618 169.00400386 19.27392578 167.39941406 C20.94759906 165.07284249 22.6268374 162.75042119 24.30859375 160.4296875 C30.08341241 152.45926168 35.80912605 144.45786708 41.47192383 136.4074707 C45.19584404 131.12081753 48.96260879 125.866342 52.75 120.625 C53.29430664 119.87001221 53.83861328 119.11502441 54.39941406 118.3371582 C56.75973075 115.06922127 59.12939293 111.81186793 61.5625 108.59765625 C62.284375 107.63730469 63.00625 106.67695313 63.75 105.6875 C64.36359375 104.88699219 64.9771875 104.08648437 65.609375 103.26171875 C67.19989587 100.67488846 67.91536857 99.04673146 68 96 C66.59845752 93.38202395 66.59845752 93.38202395 64.375 90.8125 C63.53811281 89.75959837 62.70362862 88.70478389 61.87109375 87.6484375 C61.41202637 87.0719043 60.95295898 86.49537109 60.47998047 85.90136719 C57.69497698 82.32340494 55.07795443 78.62264764 52.4375 74.9375 C51.31544078 73.3786639 50.19305211 71.82006488 49.0703125 70.26171875 C48.54083008 69.52614746 48.01134766 68.79057617 47.46582031 68.03271484 C45.59034564 65.43191502 43.70255542 62.84021765 41.8125 60.25 C38.95629828 56.32867305 36.1285339 52.38772349 33.3125 48.4375 C29.45614081 43.02811383 25.57800077 37.63488069 21.6875 32.25 C21.14802734 31.50202148 20.60855469 30.75404297 20.05273438 29.98339844 C17.16786057 25.9864688 14.26957201 22.00015851 11.3515625 18.02734375 C10.75899658 17.2168457 10.16643066 16.40634766 9.5559082 15.57128906 C8.42080566 14.01924577 7.28152513 12.47024668 6.13745117 10.92480469 C5.6241626 10.22129883 5.11087402 9.51779297 4.58203125 8.79296875 C4.13061768 8.1796167 3.6792041 7.56626465 3.21411133 6.93432617 C1.82021089 4.71355939 0.90948934 2.45416497 0 0 Z " fill="#69D8AF" transform="translate(1555,182)"/>
<path d="M0 0 C3.83822262 1.52145762 5.71669764 3.79236536 8.25 7 C9.03761719 7.98871094 9.82523438 8.97742188 10.63671875 9.99609375 C11.41660156 10.98738281 12.19648437 11.97867187 13 13 C14.35317502 14.68829529 15.70728977 16.37583796 17.0625 18.0625 C18.98314743 20.46895826 20.90193288 22.87688999 22.8203125 25.28515625 C27.01883197 30.54648085 31.25219474 35.77846148 35.5 41 C40.36244877 46.97707805 45.1979166 52.97425937 50 59 C51.33301267 60.66692314 52.66635211 62.33358503 54 64 C56.66666667 67.33333333 59.33333333 70.66666667 62 74 C62.66644531 74.83273437 63.33289063 75.66546875 64.01953125 76.5234375 C65.28904357 78.1109539 66.55738065 79.69941126 67.82421875 81.2890625 C72.58748763 87.2606239 77.40057533 93.19066597 82.22143555 99.11572266 C85.7886144 103.50219994 89.33167641 107.90669292 92.85546875 112.328125 C95.09870916 115.1229819 97.36064636 117.90193625 99.625 120.6796875 C104.29994284 126.41514978 108.94535602 132.1684156 113.5 138 C117.48915627 143.10591512 121.53644285 148.16080893 125.625 153.1875 C126.16987061 153.85797363 126.71474121 154.52844727 127.27612305 155.21923828 C129.77558649 158.28917815 132.28516371 161.34942042 134.82421875 164.38671875 C135.64535156 165.37285156 136.46648437 166.35898437 137.3125 167.375 C138.03050781 168.22835937 138.74851562 169.08171875 139.48828125 169.9609375 C141 172 141 172 141 174 C130.21105358 174.09330043 119.4222055 174.16406631 108.63293552 174.20724869 C103.62127338 174.22798984 98.60989029 174.25605648 93.59838867 174.30175781 C88.74835973 174.34570223 83.89859661 174.36923795 79.04838371 174.37950897 C77.21190146 174.38681423 75.37543126 174.40107517 73.53906441 174.42292023 C52.86295151 174.65875818 34.85651625 171.32475976 19 157 C12.84916862 150.74366551 7.41535105 143.89030749 2 137 C0.66825639 135.3320628 -0.66508057 133.66539655 -2 132 C-2.66257812 131.17113281 -3.32515625 130.34226562 -4.0078125 129.48828125 C-5.31255471 127.85863264 -6.61975672 126.23094966 -7.9296875 124.60546875 C-11.57629878 120.07283345 -15.15786725 115.49944615 -18.6875 110.875 C-22.48715644 105.89756843 -26.40339689 101.02853512 -30.375 96.1875 C-35.40713305 90.04911713 -40.24284095 83.79058806 -44.95458984 77.40307617 C-45.4130127 76.78279541 -45.87143555 76.16251465 -46.34375 75.5234375 C-46.99923828 74.62963379 -46.99923828 74.62963379 -47.66796875 73.71777344 C-48.99826457 72.002238 -50.43258211 70.44397635 -51.90625 68.8515625 C-54 66 -54 66 -54.15625 63.5078125 C-52.55428294 60.03327585 -50.15437147 57.56210157 -47.5 54.875 C-46.39209506 53.7158653 -45.28664855 52.55437614 -44.18359375 51.390625 C-43.63815918 50.81634766 -43.09272461 50.24207031 -42.53076172 49.65039062 C-40.43507834 47.39092975 -38.49294846 45.02637723 -36.5625 42.625 C-31.96519713 36.90741574 -27.16443917 31.38366052 -22.34765625 25.8515625 C-19.08647183 22.10579965 -15.85262752 18.33718303 -12.625 14.5625 C-8.44830645 9.68028849 -4.25002767 4.81869334 0 0 Z " fill="#4FB08E" transform="translate(625,355)"/>
<path d="M0 0 C1.52173828 0.86044922 1.52173828 0.86044922 3.07421875 1.73828125 C13.42572631 8.22151244 20.18441929 18.29724289 23.03512573 30.05284119 C24.10778467 34.96396608 24.26961334 39.63934006 24.22705078 44.65063477 C24.22734283 45.56878464 24.22763489 46.48693451 24.22793579 47.4329071 C24.22655419 50.43583986 24.21104859 53.4385174 24.1953125 56.44140625 C24.1915782 58.53604497 24.1887332 60.63068544 24.18673706 62.72532654 C24.17913342 68.21453754 24.15951321 73.7036412 24.1373291 79.19281006 C24.11680001 84.80365548 24.10772028 90.4145184 24.09765625 96.02539062 C24.07626405 107.01698161 24.04110876 118.00846505 24 129 C14.1 129 4.2 129 -6 129 C-6.33 124.38 -6.66 119.76 -7 115 C-8.546875 116.258125 -10.09375 117.51625 -11.6875 118.8125 C-16.83963748 123.00290515 -21.54709729 126.03761391 -27.875 128.125 C-29.35613281 128.62386719 -29.35613281 128.62386719 -30.8671875 129.1328125 C-47.36536354 133.69963929 -65.67071773 131.83070965 -80.9375 124.3125 C-86.28325066 121.18347529 -90.45617152 117.07711817 -94 112 C-94 111.34 -94 110.68 -94 110 C-94.66 110 -95.32 110 -96 110 C-101.09665587 98.60078309 -102.34911808 84.80164613 -98.375 72.8125 C-93.54264247 61.91864871 -85.68875502 54.68801342 -74.6875 50.1875 C-64.90888869 46.44222796 -54.6923718 45.65569111 -44.3125 45.75 C-43.25683838 45.75386719 -42.20117676 45.75773437 -41.11352539 45.76171875 C-29.36599383 45.88653573 -17.68791956 46.86954141 -6 48 C-6.25617193 45.43526688 -6.52934453 42.87427663 -6.8125 40.3125 C-6.88275391 39.59126953 -6.95300781 38.87003906 -7.02539062 38.12695312 C-7.64540421 32.69563412 -8.71282341 28.86596543 -13.12109375 25.26953125 C-13.88550781 24.78871094 -14.64992188 24.30789063 -15.4375 23.8125 C-16.19933594 23.32394531 -16.96117187 22.83539063 -17.74609375 22.33203125 C-28.44441888 16.00945089 -43.34723721 16.4531443 -55.28442383 19.12915039 C-61.23472343 20.67951068 -65.91999217 22.67494783 -70.484375 26.828125 C-72 28 -72 28 -75 28 C-77.36328125 25.828125 -77.36328125 25.828125 -80 23 C-81.72791784 21.24876692 -83.45707224 19.49875302 -85.1875 17.75 C-86.04730469 16.87859375 -86.90710937 16.0071875 -87.79296875 15.109375 C-89.81431066 12.97005762 -89.81431066 12.97005762 -92 12 C-91.6567218 9.15391165 -91.17450213 8.155113 -88.99609375 6.21875 C-64.37222891 -10.32247218 -26.35451522 -16.10594435 0 0 Z " fill="#ffffff" transform="translate(1225,251)"/>
<path d="M0 0 C1.90652344 0.00809692 1.90652344 0.00809692 3.8515625 0.01635742 C14.93359931 0.19645476 24.00132425 1.54384393 33.5625 7.4375 C35.21619357 8.13572617 36.87977014 8.81248605 38.5625 9.4375 C38.5625 10.0975 38.5625 10.7575 38.5625 11.4375 C39.09875 11.664375 39.635 11.89125 40.1875 12.125 C50.46936534 17.80708348 56.10644747 28.52533414 59.5625 39.4375 C59.8615625 40.35789062 60.160625 41.27828125 60.46875 42.2265625 C63.93346409 55.15507895 62.5625 66.40296783 62.5625 80.4375 C29.5625 80.4375 -3.4375 80.4375 -37.4375 80.4375 C-35.43529798 91.30516746 -35.43529798 91.30516746 -32.4375 95.4375 C-32.4375 96.7575 -32.4375 98.0775 -32.4375 99.4375 C-31.4475 99.7675 -30.4575 100.0975 -29.4375 100.4375 C-28.695 101.365625 -27.9525 102.29375 -27.1875 103.25 C-21.9805698 109.68933971 -14.38503913 112.1223715 -6.4375 113.4375 C8.23816295 114.86021582 20.52089467 112.62911695 32.22265625 103.14453125 C36.03051631 100.3665098 36.03051631 100.3665098 38.5625 100.4375 C40.87737389 102.07047305 42.85963876 103.66657131 44.9375 105.5625 C46.04932823 106.54444176 47.16130668 107.52621346 48.2734375 108.5078125 C48.81452148 108.99282227 49.35560547 109.47783203 49.91308594 109.97753906 C52.41396618 112.19116604 54.98607756 114.31253527 57.5625 116.4375 C53.74928164 125.6630283 42.23138903 130.77297624 33.5625 134.4375 C23.32356874 138.17668175 13.20170818 138.70097669 2.38696289 138.78759766 C0.89494076 138.80402359 -0.59700716 138.83113347 -2.08862305 138.86962891 C-18.20744686 139.28132568 -33.59963308 136.10419229 -46.0625 125.125 C-47.238125 123.7946875 -47.238125 123.7946875 -48.4375 122.4375 C-49.11039063 121.72078125 -49.78328125 121.0040625 -50.4765625 120.265625 C-56.82657399 113.39953483 -56.82657399 113.39953483 -57.4375 109.4375 C-58.0975 109.4375 -58.7575 109.4375 -59.4375 109.4375 C-59.9325 106.4675 -59.9325 106.4675 -60.4375 103.4375 C-61.0975 103.4375 -61.7575 103.4375 -62.4375 103.4375 C-62.64246094 102.65503906 -62.84742188 101.87257813 -63.05859375 101.06640625 C-63.32800781 100.05449219 -63.59742188 99.04257812 -63.875 98 C-64.14183594 96.99066406 -64.40867187 95.98132813 -64.68359375 94.94140625 C-65.19728077 92.51997999 -65.19728077 92.51997999 -66.4375 91.4375 C-71.96506137 70.94114105 -69.01328511 46.96609003 -58.875 28.4375 C-50.09377146 14.46331143 -37.32444238 5.79116216 -21.50390625 1.84765625 C-14.29925122 0.22854123 -7.36393664 -0.05990504 0 0 Z " fill="#68D7AF" transform="translate(1958.4375,242.5625)"/>
<path d="M0 0 C1.55654297 -0.02416992 1.55654297 -0.02416992 3.14453125 -0.04882812 C18.01423982 -0.05808697 33.19316362 4.40714124 44.5 14.3125 C45.48226563 15.10333984 45.48226563 15.10333984 46.484375 15.91015625 C51.1187995 19.99671274 54.02134645 24.56398249 56.8125 30 C57.13798828 30.62245605 57.46347656 31.24491211 57.79882812 31.88623047 C65.43317539 47.63504767 63.5 62.84170237 63.5 80.3125 C30.5 80.3125 -2.5 80.3125 -36.5 80.3125 C-32.19409469 93.23021594 -28.74809403 102.09528077 -16.8203125 108.82421875 C-11.38036574 111.4537775 -6.5330424 113.13635278 -0.5 113.3125 C0.83804687 113.4053125 0.83804687 113.4053125 2.203125 113.5 C14.09662312 113.99815699 24.92448208 110.36628852 34.5 103.3125 C35.85988802 102.00626108 37.20097193 100.67927783 38.5 99.3125 C42.06514876 100.84863553 44.53870356 102.9963452 47.375 105.625 C51.01040019 108.95924278 54.6782939 112.1947924 58.5 115.3125 C57.97465471 119.26134545 56.31474571 120.69791913 53.25 123.125 C33.10841218 138.35884881 10.51668115 140.2728134 -14 137.625 C-28.8310249 135.47860042 -42.8925034 127.91900863 -52.5 116.3125 C-65.25292095 98.82049778 -69.8866585 78.74674882 -67.5 57.3125 C-63.99492444 37.83647144 -55.95005453 22.05750275 -40 9.875 C-27.76814872 1.48597437 -14.56265793 -0.04522565 0 0 Z " fill="#ffffff" transform="translate(1488.5,242.6875)"/>
<path d="M0 0 C11.69215072 -0.09290603 23.38421281 -0.16386947 35.07665825 -0.20724869 C40.50664231 -0.22807436 45.93637279 -0.25630013 51.36621094 -0.30175781 C56.61172077 -0.34539476 61.85698753 -0.36917482 67.10266495 -0.37950897 C69.09843901 -0.38686837 71.09420059 -0.40123927 73.08987045 -0.42292023 C96.91642417 -0.67134801 96.91642417 -0.67134801 106.1875 8.3125 C107.01507813 9.10527344 107.84265625 9.89804688 108.6953125 10.71484375 C109.83613281 11.84599609 109.83613281 11.84599609 111 13 C111.61617188 13.57878906 112.23234375 14.15757812 112.8671875 14.75390625 C117.13032787 18.83041144 120.79126442 23.32965075 124.48828125 27.91796875 C127.2315948 31.28418087 130.04157935 34.58470787 132.875 37.875 C133.89848056 39.06506714 134.92191793 40.25517141 135.9453125 41.4453125 C136.70569824 42.32944824 136.70569824 42.32944824 137.48144531 43.23144531 C143.93110305 50.74291165 150.31627596 58.29364784 156.44140625 66.07421875 C158.00459172 68.07445895 158.00459172 68.07445895 160 70 C160 75.28529026 156.47646182 78.10967875 153 81.625 C151.80342215 82.87123787 150.60942538 84.11995888 149.41796875 85.37109375 C148.83192871 85.98581543 148.24588867 86.60053711 147.64208984 87.23388672 C144.6406087 90.46206314 141.92948089 93.91711983 139.17578125 97.35546875 C136.869683 100.15839248 134.45848469 102.83003275 132 105.5 C127.87849602 109.97878606 124.00570363 114.60478783 120.18359375 119.33984375 C116.90659887 123.3320325 113.46764396 127.17330843 110 131 C107.13736202 130.6613397 106.09323714 130.09680873 104.0625 127.98828125 C103.381875 127.10527344 102.70125 126.22226562 102 125.3125 C101.21367187 124.31476563 100.42734375 123.31703125 99.6171875 122.2890625 C99.1953418 121.75313477 98.77349609 121.21720703 98.33886719 120.66503906 C96.01259569 117.77204642 93.56082373 114.98820738 91.125 112.1875 C86.61533678 106.97165915 82.30573083 101.6336206 78.07910156 96.18701172 C74.49423441 91.58398036 70.77026429 87.11746951 66.98193359 82.68115234 C64.13139953 79.3424783 61.3288237 75.97180705 58.5625 72.5625 C55.15524862 68.37176301 51.65903204 64.27077014 48.125 60.1875 C44.13768016 55.57511358 40.29252462 50.88506877 36.5625 46.0625 C32.11107005 40.30912204 27.4239203 34.80255136 22.63183594 29.33105469 C18.96534409 25.13795719 15.42793546 20.87071006 11.98828125 16.48828125 C10.44923769 14.56220905 8.887941 12.67198475 7.29296875 10.79296875 C6.82979248 10.24600342 6.36661621 9.69903809 5.8894043 9.13549805 C4.56528624 7.57684985 3.23590167 6.02268026 1.90625 4.46875 C0 2 0 2 0 0 Z " fill="#245341" transform="translate(380,211)"/>
<path d="M0 0 C48.84 0 97.68 0 148 0 C148 9.9 148 19.8 148 30 C128.53 30 109.06 30 89 30 C89 85.44 89 140.88 89 198 C78.44 198 67.88 198 57 198 C57 142.56 57 87.12 57 30 C38.19 30 19.38 30 0 30 C0 20.1 0 10.2 0 0 Z " fill="#ffffff" transform="translate(906,182)"/>
<path d="M0 0 C9.9 0 19.8 0 30 0 C30 10.23 30 20.46 30 31 C42.87 31 55.74 31 69 31 C69 40.24 69 49.48 69 59 C55.8 59 42.6 59 29 59 C29.06193016 70.13110596 29.06193016 70.13110596 29.16015625 81.26171875 C29.20831421 85.80843349 29.25242459 90.35491104 29.27099609 94.90185547 C29.28625676 98.572065 29.32086536 102.24164959 29.36830902 105.91157913 C29.38302677 107.30438395 29.39103544 108.69727805 29.39188385 110.09016037 C29.40393398 119.96314928 30.25503928 128.03824228 36.3203125 136.07421875 C41.47693229 139.76563159 48.81228882 138.78846474 54.875 138.8125 C56.24483111 138.83566531 57.61462681 138.86103488 58.984375 138.88867188 C62.3232084 138.94745415 65.6607331 138.9838023 69 139 C69.02886537 143.31248609 69.04675255 147.62494762 69.0625 151.9375 C69.07087891 153.16919922 69.07925781 154.40089844 69.08789062 155.66992188 C69.09111328 156.83974609 69.09433594 158.00957031 69.09765625 159.21484375 C69.10289307 160.29886475 69.10812988 161.38288574 69.11352539 162.49975586 C69 165 69 165 68 166 C51.39786473 168.66170335 32.84559965 169.24455671 18.125 160.25 C8.36578571 153.10039246 2.71137125 143.71616397 0.4238472 131.92361832 C-0.34299905 126.63405701 -0.25983081 121.35803675 -0.22705078 116.02294922 C-0.22734283 114.76327835 -0.22763489 113.50360748 -0.22793579 112.20576477 C-0.228505 108.78285385 -0.21682142 105.36008571 -0.20278788 101.9372077 C-0.1902078 98.34845566 -0.18910432 94.75969964 -0.18673706 91.17092896 C-0.18054353 84.38907299 -0.16416179 77.60728221 -0.14403808 70.82545483 C-0.12161251 63.09865605 -0.11066898 55.37185401 -0.10064721 47.64503074 C-0.07979345 31.76330975 -0.04314411 15.88167845 0 0 Z " fill="#69D9B0" transform="translate(2131,213)"/>
<path d="M0 0 C0.84755859 0.00322266 1.69511719 0.00644531 2.56835938 0.00976562 C3.44943359 0.01814453 4.33050781 0.02652344 5.23828125 0.03515625 C6.57729492 0.04192383 6.57729492 0.04192383 7.94335938 0.04882812 C10.14590112 0.06060642 12.34830724 0.07705461 14.55078125 0.09765625 C14.55078125 0.75765625 14.55078125 1.41765625 14.55078125 2.09765625 C15.85015625 2.30390625 17.14953125 2.51015625 18.48828125 2.72265625 C26.87016244 4.60430305 34.34013929 10.34127362 39.55078125 17.09765625 C46.73760436 29.25232943 49.81893397 41.01539465 46.30078125 54.97265625 C42.4124751 67.3331891 33.76360809 76.75158217 22.55078125 83.09765625 C21.92816406 83.45859375 21.30554687 83.81953125 20.6640625 84.19140625 C12.17501711 87.83181019 0.21313206 87.36729877 -8.38671875 84.47265625 C-13.35355431 82.36818963 -17.462294 79.7198198 -21.44921875 76.09765625 C-22.35800781 75.28748047 -22.35800781 75.28748047 -23.28515625 74.4609375 C-31.68884711 66.00220063 -35.0013301 55.04891245 -35.01171875 43.41015625 C-34.70844115 30.66615226 -32.31620995 20.35261306 -23.375 10.90625 C-16.94983558 4.81748162 -9.09083689 -0.06101233 0 0 Z " fill="#FBFBFB" transform="translate(1329.44921875,268.90234375)"/>
<path d="M0 0 C9.94842872 6.93512992 9.94842872 6.93512992 11.56640625 11.7890625 C12.22640625 12.1190625 12.88640625 12.4490625 13.56640625 12.7890625 C13.78296875 13.7171875 13.78296875 13.7171875 14.00390625 14.6640625 C14.37929497 16.85399575 14.37929497 16.85399575 15.99609375 18.1015625 C21.90059664 24.44669993 21.11564394 36.61000908 20.83984375 44.8046875 C20.08856515 55.75188997 15.62210882 64.13160729 7.546875 71.67578125 C-3.05753413 79.979431 -14.06499273 82.79009301 -27.43359375 81.7890625 C-37.64543051 80.14680805 -46.54362821 74.73687534 -52.87109375 66.6015625 C-60.90956706 54.42005675 -62.38157213 41.22935112 -59.73828125 27.0625 C-56.85252694 16.70773454 -50.86655641 6.01383701 -41.234375 0.5390625 C-28.17672845 -5.49095424 -12.81763081 -7.52300445 0 0 Z " fill="#FCFEFD" transform="translate(1829.43359375,273.2109375)"/>
<path d="M0 0 C0.0292483 3.20831391 0.04688189 6.41659307 0.0625 9.625 C0.07087891 10.52863281 0.07925781 11.43226563 0.08789062 12.36328125 C0.09111328 13.24628906 0.09433594 14.12929688 0.09765625 15.0390625 C0.10289307 15.84553223 0.10812988 16.65200195 0.11352539 17.48291016 C-0.01713866 20.37999918 -0.47671394 23.14999221 -1 26 C-1.72477539 25.98428955 -2.44955078 25.9685791 -3.19628906 25.95239258 C-6.54744349 25.88921857 -9.89847197 25.85075114 -13.25 25.8125 C-14.38953125 25.78736328 -15.5290625 25.76222656 -16.703125 25.73632812 C-25.7555463 25.65917681 -35.80671601 25.84158475 -43 32 C-46.8063003 36.34475254 -48.38368907 41.54277816 -50 47 C-50.33 47.99 -50.66 48.98 -51 50 C-51.11996454 52.69147956 -51.18531849 55.3590364 -51.20532227 58.05151367 C-51.22017166 59.28112068 -51.22017166 59.28112068 -51.23532104 60.53556824 C-51.26692009 63.24633898 -51.2916872 65.95712725 -51.31640625 68.66796875 C-51.33697715 70.54698646 -51.35797366 72.42599955 -51.37937927 74.30500793 C-51.43458586 79.2517015 -51.4840014 84.19843674 -51.53222656 89.14520264 C-51.58245187 94.19254262 -51.63813257 99.23982207 -51.69335938 104.28710938 C-51.8009237 114.19135647 -51.90186845 124.09565495 -52 134 C-61.9 134 -71.8 134 -82 134 C-82.04532813 122.47270893 -82.08196051 110.94547784 -82.10362434 99.41811752 C-82.11402605 94.0645184 -82.12811873 88.71098385 -82.15087891 83.35742188 C-82.17273679 78.18324404 -82.18459575 73.009128 -82.18975449 67.83490753 C-82.19342713 65.86872638 -82.20059836 63.90254831 -82.21146011 61.93639374 C-82.34527959 36.69055917 -82.34527959 36.69055917 -79 30 C-78.34 30 -77.68 30 -77 30 C-77.020625 29.05125 -77.04125 28.1025 -77.0625 27.125 C-75.8230052 18.81703485 -67.0267323 12.82777789 -60.8125 8.0625 C-55.50512912 4.1476923 -50.10023011 1.44009204 -44 -1 C-43.67 -1.33 -43.34 -1.66 -43 -2 C-29.7640551 -5.33331701 -12.43853844 -6.36736633 0 0 Z " fill="#68D8AE" transform="translate(2118,246)"/>
<path d="M0 0 C2.6644503 -0.06030649 5.32818605 -0.09750698 7.99316406 -0.12548828 C8.84974609 -0.13870117 9.70632813 -0.15191406 10.58886719 -0.16552734 C11.41064453 -0.16649414 12.23242188 -0.16746094 13.07910156 -0.16845703 C13.80919434 -0.17256592 14.53928711 -0.1766748 15.29150391 -0.1809082 C17.61816406 0.06201172 17.61816406 0.06201172 23.61816406 2.06201172 C23.61816406 10.97201172 23.61816406 19.88201172 23.61816406 29.06201172 C18.82733566 29.06201172 15.98405304 28.98408747 11.61816406 28.06201172 C2.28886698 27.41083931 -8.99726111 27.34304705 -16.81933594 33.24951172 C-24.11050923 41.25201899 -26.67108564 49.07774176 -26.70068359 59.7512207 C-26.71072922 60.59104996 -26.72077484 61.43087921 -26.73112488 62.29615784 C-26.76181971 65.05013392 -26.77895368 67.80401341 -26.79589844 70.55810547 C-26.81462112 72.47625044 -26.83419535 74.39438727 -26.85458374 76.31251526 C-26.90579467 81.34462676 -26.94547937 86.37676493 -26.98272705 91.40899658 C-27.02283604 96.55056293 -27.07389687 101.69201938 -27.12402344 106.83349609 C-27.22065204 116.90959825 -27.30408551 126.98574619 -27.38183594 137.06201172 C-37.61183594 137.06201172 -47.84183594 137.06201172 -58.38183594 137.06201172 C-58.44983678 125.79549228 -58.5047814 114.52911101 -58.53727245 103.2624321 C-58.55287302 98.02985712 -58.57400797 92.79743084 -58.6081543 87.56494141 C-58.64094887 82.50746465 -58.65873105 77.45013019 -58.66646767 72.39255524 C-58.6719753 70.47101861 -58.68272956 68.54948903 -58.69902611 66.62801361 C-58.85425034 47.55300184 -56.34560697 31.60391812 -42.61230469 17.24951172 C-30.24966375 5.12503024 -17.26556039 0.44951336 0 0 Z " fill="#ffffff" transform="translate(1091.3818359375,242.93798828125)"/>
<path d="M0 0 C1.18999855 0.00280975 1.18999855 0.00280975 2.40403748 0.00567627 C4.06879936 0.01235264 5.73354675 0.02617808 7.39819336 0.046875 C9.93032633 0.07808473 12.46183404 0.08786149 14.99414062 0.09375 C16.62110125 0.10292043 18.24805562 0.11329633 19.875 0.125 C20.6231044 0.12924988 21.3712088 0.13349976 22.14198303 0.13787842 C26.64069506 0.19837745 30.93030339 0.59925257 35.37109375 1.328125 C35.42526116 4.05756037 35.464846 6.78591064 35.49609375 9.515625 C35.51285156 10.28455078 35.52960938 11.05347656 35.546875 11.84570312 C35.58376226 16.1430684 35.36694415 19.40714331 33.37109375 23.328125 C32.71109375 23.328125 32.05109375 23.328125 31.37109375 23.328125 C31.09265625 24.38 31.09265625 24.38 30.80859375 25.453125 C28.81431478 29.44168295 25.85602487 31.63722882 22.37109375 34.328125 C21.7575 34.84761719 21.14390625 35.36710937 20.51171875 35.90234375 C12.59732299 41.17379348 0.51101118 41.31126033 -8.62890625 40.328125 C-16.01840678 38.40685486 -22.4895206 34.95114204 -26.62890625 28.328125 C-28.44260765 23.54654858 -28.00996855 18.66184305 -26.62890625 13.828125 C-23.4624321 7.22758733 -17.551313 3.40474714 -10.85908508 0.96270752 C-7.23020542 -0.069866 -3.74979787 -0.06205501 0 0 Z " fill="#F8F9F9" transform="translate(1182.62890625,318.671875)"/>
<path d="M0 0 C1.27653442 0.00241699 1.27653442 0.00241699 2.57885742 0.00488281 C8.74464116 0.12567604 13.5262977 0.92042342 18.75 4.375 C19.78125 4.973125 20.8125 5.57125 21.875 6.1875 C28.3399081 11.10645182 33.70984746 16.25240509 35.75 24.375 C35.75 27.015 35.75 29.655 35.75 32.375 C12.32 32.375 -11.11 32.375 -35.25 32.375 C-35.25 25.64507299 -35.25 25.64507299 -33.375 22.3125 C-32.19382702 20.1732645 -31.18304458 18.19036535 -30.34765625 15.88671875 C-27.98534129 10.48113682 -22.97858378 5.82796584 -17.5625 3.5 C-15.9228125 2.943125 -15.9228125 2.943125 -14.25 2.375 C-13.19619141 1.85679687 -13.19619141 1.85679687 -12.12109375 1.328125 C-8.06840338 -0.01725792 -4.24532725 -0.00825698 0 0 Z " fill="#F8FDFC" transform="translate(1956.25,267.625)"/>
<path d="M0 0 C7.68055582 7.43279595 9.05830386 13.70803861 10.125 24.375 C-12.975 24.375 -36.075 24.375 -59.875 24.375 C-59.875 14.84564679 -57.27736099 9.13618972 -50.78515625 2.23046875 C-37.24893336 -10.91821401 -14.91655917 -12.11970432 0 0 Z " fill="#F8F9F9" transform="translate(1512.875,275.625)"/>
<path d="M0 0 C0.99 0 1.98 0 3 0 C3 117.15 3 234.3 3 355 C2.01 355 1.02 355 0 355 C0 237.85 0 120.7 0 0 Z " fill="#C3C7C8" transform="translate(840,153)"/>
<path d="M0 0 C126.06 0 252.12 0 382 0 C381.34 1.65 380.68 3.3 380 5 C379.67 3.68 379.34 2.36 379 1 C253.93 1 128.86 1 0 1 C0 0.67 0 0.34 0 0 Z " fill="#ffffff" transform="translate(171,80)"/>
<path d="M0 0 C1.20512842 4.27156995 1.08988388 8.40360389 1.02172852 12.80761719 C1.01212097 13.69577621 1.00251343 14.58393524 0.99261475 15.49900818 C0.95966053 18.431712 0.91931448 21.3642652 0.87890625 24.296875 C0.85460164 26.33139517 0.83075825 28.36592089 0.80735779 30.40045166 C0.74455079 35.7532993 0.67547448 41.10604845 0.60510254 46.45880127 C0.53438859 51.92170733 0.46958993 57.38468318 0.40429688 62.84765625 C0.2753281 73.56518296 0.1391911 84.28260117 0 95 C9.24 95 18.48 95 28 95 C28 68.6 28 42.2 28 15 C28.33 15 28.66 15 29 15 C29 42.06 29 69.12 29 97 C18.77 97 8.54 97 -2 97 C-2.04526916 85.68166449 -2.08192677 74.36338959 -2.10362434 63.04498386 C-2.11404054 57.78882534 -2.12816013 52.53273222 -2.15087891 47.27661133 C-2.17268455 42.19970498 -2.18458489 37.12286137 -2.18975449 32.04591179 C-2.1934364 30.11353506 -2.20062615 28.18116159 -2.21146011 26.24881172 C-2.22607772 23.53241811 -2.22797367 20.81628042 -2.22705078 18.09985352 C-2.23424133 17.30934601 -2.24143188 16.5188385 -2.24884033 15.70437622 C-2.2289143 10.24825726 -1.37434175 5.27582489 0 0 Z " fill="#ffffff" transform="translate(1035,283)"/>
<path d="M0 0 C0.33 0 0.66 0 1 0 C1 29.04 1 58.08 1 88 C9.91 88 18.82 88 28 88 C28 61.93 28 35.86 28 9 C28.66 8.67 29.32 8.34 30 8 C30 35.06 30 62.12 30 90 C20.1 90 10.2 90 0 90 C0 60.3 0 30.6 0 0 Z " fill="#90D8BE" transform="translate(2036,290)"/>
<path d="M0 0 C0.33 0 0.66 0 1 0 C1 46.53 1 93.06 1 141 C0.67 141 0.34 141 0 141 C-0.33 122.52 -0.66 104.04 -1 85 C-15.19 84.67 -29.38 84.34 -44 84 C-44 83.67 -44 83.34 -44 83 C-30.47 83 -16.94 83 -3 83 C-3.33 82.01 -3.66 81.02 -4 80 C-3.34 80 -2.68 80 -2 80 C-1.98969254 79.11574341 -1.97938507 78.23148682 -1.96876526 77.32043457 C-1.87055755 68.9640949 -1.76801127 60.60782195 -1.66066074 52.25159454 C-1.60562955 47.9561658 -1.55224266 43.66073004 -1.50268555 39.36523438 C-1.45474808 35.21547413 -1.40239734 31.06579036 -1.34705925 26.91612244 C-1.32676799 25.33741678 -1.30803428 23.75869026 -1.29092598 22.1799469 C-1.26658616 19.95908116 -1.2365762 17.73835592 -1.20532227 15.51757812 C-1.18977798 14.25627075 -1.1742337 12.99496338 -1.15821838 11.69543457 C-0.98879588 7.73831043 -0.54120844 3.92174821 0 0 Z " fill="#CEF4E8" transform="translate(1740,296)"/>
<path d="M0 0 C0.99 0.495 0.99 0.495 2 1 C1.55269531 1.50789062 1.10539063 2.01578125 0.64453125 2.5390625 C-0.26232422 3.57160156 -0.26232422 3.57160156 -1.1875 4.625 C-2.14269531 5.71167969 -2.14269531 5.71167969 -3.1171875 6.8203125 C-4.7265641 8.68344972 -6.2760031 10.57707873 -7.8125 12.5 C-8.8953125 13.7375 -8.8953125 13.7375 -10 15 C-10.66 15 -11.32 15 -12 15 C-12.37125 15.8353125 -12.37125 15.8353125 -12.75 16.6875 C-14.22924818 19.42410913 -15.93467439 21.67650869 -18 24 C-18.66 24 -19.32 24 -20 24 C-20.37125 24.8353125 -20.37125 24.8353125 -20.75 25.6875 C-22.22924818 28.42410913 -23.93467439 30.67650869 -26 33 C-26.66 33 -27.32 33 -28 33 C-28.2475 33.556875 -28.495 34.11375 -28.75 34.6875 C-30.22924818 37.42410913 -31.93467439 39.67650869 -34 42 C-34.66 42 -35.32 42 -36 42 C-36.27457031 42.59224365 -36.54914063 43.1844873 -36.83203125 43.79467773 C-37.95196977 45.90931081 -39.11696874 47.491147 -40.6875 49.28515625 C-41.21649902 49.89278809 -41.74549805 50.50041992 -42.29052734 51.12646484 C-43.13671631 52.08480225 -43.13671631 52.08480225 -44 53.0625 C-44.58088379 53.72717285 -45.16176758 54.3918457 -45.76025391 55.07666016 C-49.24927274 59.05603794 -52.79321646 62.9791216 -56.375 66.875 C-59.15924435 69.90831413 -61.78608029 72.95251541 -64.25 76.25 C-68.05483576 81.28103875 -72.4046149 85.76446962 -76.73413086 90.33959961 C-81.01006206 94.87989218 -84.99738537 99.54019484 -88.890625 104.4140625 C-92.43084006 108.75410392 -96.21428682 112.87419911 -100 117 C-100.66 116.67 -101.32 116.34 -102 116 C-101.31035156 115.26136719 -100.62070312 114.52273437 -99.91015625 113.76171875 C-95.29137964 108.78561558 -90.75772135 103.79317445 -86.5 98.5 C-82.8643595 93.98141824 -79.03163598 89.72016671 -75.08374023 85.47827148 C-72.11284372 82.2670095 -69.30038923 78.97372185 -66.5625 75.5625 C-62.71954521 70.78458662 -58.63168671 66.31005016 -54.44384766 61.83837891 C-50.52415468 57.62917024 -46.88733712 53.24256037 -43.28515625 48.7578125 C-39.86059235 44.62492 -36.21015533 40.71265083 -32.5625 36.77734375 C-29.90133655 33.89306447 -27.31300992 30.95662867 -24.7421875 27.9921875 C-22.68499601 25.63979365 -20.59403085 23.31965034 -18.5 21 C-14.62363949 16.70315292 -10.79956413 12.36471669 -7 8 C-5.68786505 6.49968066 -4.37537249 4.99967399 -3.0625 3.5 C-2.47597656 2.8296875 -1.88945313 2.159375 -1.28515625 1.46875 C-0.86105469 0.9840625 -0.43695312 0.499375 0 0 Z " fill="#87CBB3" transform="translate(677,127)"/>
<path d="M0 0 C-0.30924214 2.10464793 -0.6225056 4.2087053 -0.9375 6.3125 C-1.11152344 7.48425781 -1.28554688 8.65601563 -1.46484375 9.86328125 C-2 13 -2 13 -3 16 C-3.66 16 -4.32 16 -5 16 C-4.40688872 11.15625788 -3.38082963 6.6757361 -2 2 C-2.91676514 2.31743164 -3.83353027 2.63486328 -4.77807617 2.96191406 C-13.53716255 5.95962773 -22.32574431 8.50672257 -31.3125 10.75 C-34.02147862 11.43626897 -36.72940994 12.12664054 -39.4375 12.81640625 C-40.47871758 13.08074211 -40.47871758 13.08074211 -41.54096985 13.35041809 C-49.64524345 15.41057043 -57.72937977 17.54611863 -65.8125 19.6875 C-66.53448578 19.87832153 -67.25647156 20.06914307 -68.00033569 20.26574707 C-76.90088969 22.61871074 -85.79916259 24.98094974 -94.62817383 27.5925293 C-99.08613019 28.87674576 -103.40087204 29.51267518 -108 30 C-105.83148611 27.83148611 -104.88103352 27.50279247 -102 26.6875 C-101.10796875 26.43226562 -100.2159375 26.17703125 -99.296875 25.9140625 C-98.20890625 25.61242187 -97.1209375 25.31078125 -96 25 C-94.609354 24.61205445 -93.21873055 24.22402805 -91.828125 23.8359375 C-89.51539754 23.19164909 -87.20218185 22.54931986 -84.88769531 21.91137695 C-80.16184376 20.60848729 -75.45336588 19.25740821 -70.75 17.875 C-66.33482835 16.60343057 -61.94052459 15.53512953 -57.4375 14.625 C-48.76379785 12.83411284 -40.31673721 10.30707956 -31.82128906 7.8203125 C-28.90257362 6.9716725 -25.97954923 6.13969494 -23.0546875 5.3125 C-22.09312744 5.04026611 -21.13156738 4.76803223 -20.14086914 4.48754883 C-18.28617917 3.96292051 -16.43120794 3.43928526 -14.57592773 2.91674805 C-13.32598022 2.56157104 -13.32598022 2.56157104 -12.05078125 2.19921875 C-11.31512939 1.99127686 -10.57947754 1.78333496 -9.8215332 1.5690918 C-6.23094783 0.44730457 -3.89392686 -0.08465058 0 0 Z " fill="#92E0C7" transform="translate(813,51)"/>
<path d="M0 0 C0.66 0.33 1.32 0.66 2 1 C4.75970903 1.09847271 7.49417882 1.13628431 10.25415039 1.12939453 C11.10805359 1.13114685 11.96195679 1.13289917 12.84173584 1.13470459 C15.67706307 1.13912076 18.51232833 1.13618411 21.34765625 1.1328125 C23.31863924 1.13348604 25.28962215 1.13445649 27.26060486 1.13571167 C31.40087674 1.13718868 35.5411271 1.13503559 39.68139648 1.13037109 C44.97160356 1.1246999 50.2617596 1.12793615 55.55196476 1.13394356 C59.6279081 1.13757142 63.70383953 1.13639993 67.77978325 1.13381577 C69.72889652 1.13315129 71.6780109 1.13395809 73.62712288 1.13629532 C76.36480662 1.13885548 79.10241007 1.13493304 81.84008789 1.12939453 C83.03516212 1.13243088 83.03516212 1.13243088 84.25437927 1.13552856 C89.57063823 1.11576053 94.72400602 0.66080855 100 0 C93.65783429 4.22811048 86.13981792 4.29301319 78.71655273 4.22705078 C77.39784935 4.22748886 77.39784935 4.22748886 76.05250549 4.22793579 C73.17943049 4.22655506 70.30662281 4.21105372 67.43359375 4.1953125 C65.42863608 4.19157789 63.42367658 4.18873304 61.41871643 4.18673706 C56.16623816 4.17913587 50.91387219 4.15951784 45.66143799 4.1373291 C40.29188556 4.11679466 34.92231483 4.10771915 29.55273438 4.09765625 C19.03510717 4.0762684 8.51756296 4.04217526 -2 4 C-1.34 2.68 -0.68 1.36 0 0 Z " fill="#4F6F66" transform="translate(331,525)"/>
<path d="M0 0 C8.58 0 17.16 0 26 0 C26.020625 4.269375 26.04125 8.53875 26.0625 12.9375 C26.071604 14.28577881 26.08070801 15.63405762 26.09008789 17.02319336 C26.09258545 18.07643799 26.09508301 19.12968262 26.09765625 20.21484375 C26.10289307 21.29886475 26.10812988 22.38288574 26.11352539 23.49975586 C26 26 26 26 25 27 C11.50778061 29.18371181 -5.16948033 30.15676389 -18 25 C-15.48242976 24.12853338 -13.9824469 24.00306226 -11.32568359 24.46655273 C-7.63305899 25.05885818 -4.15342529 25.1126137 -0.4140625 25.09765625 C0.28772125 25.0962413 0.989505 25.09482635 1.71255493 25.09336853 C3.93341504 25.0878129 6.15417084 25.07526892 8.375 25.0625 C9.88932145 25.05747926 11.4036445 25.05291736 12.91796875 25.04882812 C16.61205078 25.03871289 20.30590991 25.01912935 24 25 C24 17.08 24 9.16 24 1 C16.08 1 8.16 1 0 1 C0 0.67 0 0.34 0 0 Z " fill="#92DAC1" transform="translate(2174,352)"/>
<path d="M0 0 C-3.03161808 2.02107872 -5.22086568 2.75048101 -8.70898438 3.69580078 C-9.88029907 4.01598175 -11.05161377 4.33616272 -12.25842285 4.66604614 C-14.15690979 5.17553299 -14.15690979 5.17553299 -16.09375 5.6953125 C-17.40517131 6.05080442 -18.71648993 6.40667533 -20.02770996 6.76290894 C-22.77389138 7.50770256 -25.52106741 8.24867064 -28.26904297 8.98681641 C-31.7914876 9.93320558 -35.31163032 10.88784552 -38.83110809 11.84520149 C-41.53776971 12.58070219 -44.24543871 13.31243383 -46.95344543 14.04296494 C-48.88331169 14.5641181 -50.81244945 15.08796648 -52.74157715 15.61184692 C-54.49854919 16.0826619 -54.49854919 16.0826619 -56.29101562 16.56298828 C-57.32343384 16.84119415 -58.35585205 17.11940002 -59.41955566 17.40603638 C-62 18 -62 18 -65 18 C-65 18.66 -65 19.32 -65 20 C-65.99 19.67 -66.98 19.34 -68 19 C-67 17 -67 17 -63.30859375 15.6328125 C-61.68784095 15.12079079 -60.06387285 14.61887976 -58.4375 14.125 C-57.5719751 13.85743896 -56.7064502 13.58987793 -55.81469727 13.31420898 C-49.45237391 11.37495366 -43.06693702 9.69110397 -36.59765625 8.14453125 C-32.85529001 7.23533973 -29.14538838 6.22590779 -25.43359375 5.19921875 C-24.27093994 4.87880615 -23.10828613 4.55839355 -21.91040039 4.22827148 C-19.59151951 3.58661996 -17.27422789 2.93919098 -14.95874023 2.28540039 C-13.88696533 1.99012451 -12.81519043 1.69484863 -11.7109375 1.390625 C-10.75493652 1.12282227 -9.79893555 0.85501953 -8.81396484 0.57910156 C-5.80585236 -0.03995473 -3.06275904 -0.10071515 0 0 Z " fill="#90DEC5" transform="translate(705,81)"/>
<path d="M0 0 C0.66 0.33 1.32 0.66 2 1 C1.32904297 1.76183594 1.32904297 1.76183594 0.64453125 2.5390625 C-0.26232422 3.57160156 -0.26232422 3.57160156 -1.1875 4.625 C-2.14269531 5.71167969 -2.14269531 5.71167969 -3.1171875 6.8203125 C-4.7265641 8.68344972 -6.2760031 10.57707873 -7.8125 12.5 C-8.534375 13.325 -9.25625 14.15 -10 15 C-10.66 15 -11.32 15 -12 15 C-12.2475 15.556875 -12.495 16.11375 -12.75 16.6875 C-14.22924818 19.42410913 -15.93467439 21.67650869 -18 24 C-18.66 24 -19.32 24 -20 24 C-20.2475 24.556875 -20.495 25.11375 -20.75 25.6875 C-22.22924818 28.42410913 -23.93467439 30.67650869 -26 33 C-26.66 33 -27.32 33 -28 33 C-28.2475 33.556875 -28.495 34.11375 -28.75 34.6875 C-30.22924818 37.42410913 -31.93467439 39.67650869 -34 42 C-34.66 42 -35.32 42 -36 42 C-36.35191406 42.82757813 -36.35191406 42.82757813 -36.7109375 43.671875 C-38.32848158 46.59325764 -40.36450195 48.79574497 -42.625 51.25 C-43.44226563 52.14203125 -44.25953125 53.0340625 -45.1015625 53.953125 C-45.72804688 54.62859375 -46.35453125 55.3040625 -47 56 C-47.66 55.67 -48.32 55.34 -49 55 C-48.28714844 54.2265625 -47.57429687 53.453125 -46.83984375 52.65625 C-42.0813478 47.48469595 -37.34686101 42.30188279 -32.7421875 36.9921875 C-30.68499601 34.63979365 -28.59403085 32.31965034 -26.5 30 C-23.2373201 26.38459795 -20.0142505 22.7391044 -16.81640625 19.06640625 C-14.71083512 16.67103608 -12.57551312 14.30394858 -10.4375 11.9375 C-6.89303555 8.01067037 -3.42082097 4.03481448 0 0 Z " fill="#93D8C0" transform="translate(677,127)"/>
<path d="M0 0 C30.03 0 60.06 0 91 0 C91 0.33 91 0.66 91 1 C61.96 1 32.92 1 3 1 C2.67 1.99 2.34 2.98 2 4 C1.34 2.68 0.68 1.36 0 0 Z " fill="#325648" transform="translate(380,211)"/>
<path d="M0 0 C1.0283396 3.19796308 0.93713245 5.31430022 0.1796875 8.5703125 C-0.02366211 9.4581543 -0.22701172 10.34599609 -0.43652344 11.26074219 C-0.6637207 12.20594727 -0.89091797 13.15115234 -1.125 14.125 C-1.35219727 15.10114258 -1.57939453 16.07728516 -1.81347656 17.08300781 C-3.47563457 24.11345606 -5.38249546 31.05556616 -7.40258789 37.99023438 C-8.73113635 42.66331705 -9.4190545 47.04298093 -9.6875 51.875 C-10.24890465 55.69255162 -12.09523238 58.6820177 -14 62 C-15.4455337 58.13594299 -14.53981861 55.33091501 -13.48828125 51.42578125 C-13.32000824 50.78889374 -13.15173523 50.15200623 -12.97836304 49.49581909 C-12.4315467 47.43234998 -11.87199161 45.37256441 -11.3125 43.3125 C-10.74768499 41.19237694 -10.18631881 39.07136248 -9.62538147 36.95021057 C-9.25639419 35.55511467 -8.88639456 34.16028611 -8.5153656 32.76573181 C-7.14263176 27.59341463 -5.87146637 22.4058364 -4.6875 17.1875 C-3.35351738 11.37726457 -1.83923419 5.67097209 0 0 Z " fill="#95E0C7" transform="translate(807,67)"/>
<path d="M0 0 C-3.34821056 1.02010714 -6.342141 1.08858917 -9.83203125 1.02734375 C-10.96060547 1.01509766 -12.08917969 1.00285156 -13.25195312 0.99023438 C-15.61399623 0.95525074 -17.97598317 0.91622856 -20.33789062 0.87304688 C-27.481096 0.8039322 -32.91067753 1.26203795 -39.5 4.0625 C-42.63060038 5.23647514 -45.68947735 5.61052675 -49 6 C-47.6993321 3.3986642 -46.69919978 3.35811992 -44 2.4375 C-41.26066983 1.60962158 -41.26066983 1.60962158 -39 0 C-26.56379297 -3.13191243 -12.3995896 -3.41217208 0 0 Z " fill="#A5E5CE" transform="translate(2114,244)"/>
<path d="M0 0 C0.33 0 0.66 0 1 0 C1 14.19 1 28.38 1 43 C0.67 43 0.34 43 0 43 C-1.75301626 35.44011738 -2.21713965 28.11018905 -2.25 20.375 C-2.25902344 19.50528564 -2.26804687 18.63557129 -2.27734375 17.73950195 C-2.2496855 11.6241484 -1.39907989 5.94847975 0 0 Z " fill="#A0E3CB" transform="translate(1892,291)"/>
<path d="M0 0 C3.79807282 0.59208371 6.65996403 1.69451417 10.01953125 3.546875 C10.95990234 4.0625 11.90027344 4.578125 12.86914062 5.109375 C13.84044922 5.65078125 14.81175781 6.1921875 15.8125 6.75 C16.77220703 7.2759375 17.73191406 7.801875 18.72070312 8.34375 C24.26073529 11.39927627 29.66896595 14.59318534 35 18 C34.01 18.495 34.01 18.495 33 19 C28.76495491 17.53069864 25.40310082 15.64656054 21.75 13.0625 C17.54308154 10.14724261 13.34456414 8.49416962 8.48046875 6.95703125 C5.88829153 5.95689988 4.06015333 4.85846 2 3 C2 2.34 2 1.68 2 1 C1.34 0.67 0.68 0.34 0 0 Z " fill="#91DFC5" transform="translate(640,101)"/>
<path d="M0 0 C0.33 0.66 0.66 1.32 1 2 C-0.65 4.31 -2.3 6.62 -4 9 C15.8 9.495 15.8 9.495 36 10 C36 10.33 36 10.66 36 11 C21.81 11 7.62 11 -7 11 C-5.0199877 6.04996925 -3.41170047 3.86060843 0 0 Z " fill="#7BD1B2" transform="translate(1561,368)"/>
<path d="M0 0 C-0.30924214 2.10464793 -0.6225056 4.2087053 -0.9375 6.3125 C-1.19853516 8.07013672 -1.19853516 8.07013672 -1.46484375 9.86328125 C-2 13 -2 13 -3 16 C-3.66 16 -4.32 16 -5 16 C-4.40380045 11.13103697 -3.43023178 6.67209049 -2 2 C-2.85271484 2.32484375 -2.85271484 2.32484375 -3.72265625 2.65625 C-8.7242219 4.45981958 -12.68962036 5.3389604 -18 5 C-15.44615907 3.6166695 -12.81528407 2.46245199 -10.125 1.375 C-9.48820313 1.11460938 -8.85140625 0.85421875 -8.1953125 0.5859375 C-5.41753844 -0.15546127 -2.86140652 -0.08967371 0 0 Z " fill="#A0E6D1" transform="translate(813,51)"/>
<path d="M0 0 C-5.56385523 3.08490983 -11.90439399 4.33259208 -18 6 C-18.81984375 6.23203125 -19.6396875 6.4640625 -20.484375 6.703125 C-24.40907804 7.76796691 -27.93596906 8.20320155 -32 8 C-31.67 7.34 -31.34 6.68 -31 6 C-28.67038557 5.64159778 -26.33634657 5.31151288 -24 5 C-22.33256396 4.33526 -20.66599293 3.66834855 -19 3 C-16.86490105 2.41745736 -14.71780636 1.87765095 -12.5625 1.375 C-10.92474609 0.98441406 -10.92474609 0.98441406 -9.25390625 0.5859375 C-6.08907449 0.01603982 -3.20716994 -0.10642193 0 0 Z " fill="#D7F9EF" transform="translate(781,59)"/>
<path d="M0 0 C0.66 0.33 1.32 0.66 2 1 C-2.03523352 5.81123996 -6.04467233 10.13242719 -11 14 C-11 11 -11 11 -8.59375 8.30078125 C-7.5700032 7.29697757 -6.5383946 6.30114351 -5.5 5.3125 C-4.97535156 4.80138672 -4.45070313 4.29027344 -3.91015625 3.76367188 C-2.61339096 2.50227292 -1.30753883 1.25022788 0 0 Z " fill="#88DABC" transform="translate(1914,255)"/>
<path d="M0 0 C0.66 0.33 1.32 0.66 2 1 C-2.62 5.62 -7.24 10.24 -12 15 C-12.66 14.67 -13.32 14.34 -14 14 C-12.60919892 12.41224451 -11.21211596 10.82999061 -9.8125 9.25 C-8.64654297 7.92742187 -8.64654297 7.92742187 -7.45703125 6.578125 C-5.11544754 4.12113732 -2.69841735 2.05137234 0 0 Z " fill="#ffffff" transform="translate(1448,253)"/>
<path d="M0 0 C-2.93720508 1.52299523 -5.9168649 2.80100302 -9 4 C-8.34 4.45375 -7.68 4.9075 -7 5.375 C-6.34 5.91125 -5.68 6.4475 -5 7 C-5 7.66 -5 8.32 -5 9 C-4.34 9.33 -3.68 9.66 -3 10 C-3.99 10 -4.98 10 -6 10 C-6 9.34 -6 8.68 -6 8 C-7.32 8 -8.64 8 -10 8 C-12 5 -12 5 -11.625 2.8125 C-11.41875 2.214375 -11.2125 1.61625 -11 1 C-7.27569643 0.30710631 -3.78916254 -0.11144596 0 0 Z " fill="#CEF3E9" transform="translate(647,95)"/>
<path d="M0 0 C0.33 0 0.66 0 1 0 C1.40850553 7.08076251 -0.09579269 13.19925959 -2 20 C-2.66 20 -3.32 20 -4 20 C-3.34034961 13.13963599 -1.7637236 6.65556077 0 0 Z " fill="#D4F8EE" transform="translate(807,71)"/>
<path d="M0 0 C-0.93972656 0.18175781 -0.93972656 0.18175781 -1.8984375 0.3671875 C-2.71570312 0.53476563 -3.53296875 0.70234375 -4.375 0.875 C-5.18710938 1.03742188 -5.99921875 1.19984375 -6.8359375 1.3671875 C-9.18673923 1.86658932 -9.18673923 1.86658932 -11 4 C-13.6015625 4.6328125 -13.6015625 4.6328125 -16.625 5.125 C-17.62789062 5.29257813 -18.63078125 5.46015625 -19.6640625 5.6328125 C-20.43492187 5.75398437 -21.20578125 5.87515625 -22 6 C-20.6993321 3.3986642 -19.69919978 3.35811992 -17 2.4375 C-14.26066983 1.60962158 -14.26066983 1.60962158 -12 0 C-4.23003802 -1.27376426 -4.23003802 -1.27376426 0 0 Z " fill="#AFE7D3" transform="translate(2087,244)"/>
<path d="M0 0 C0.66 0.33 1.32 0.66 2 1 C1.55269531 1.50789062 1.10539063 2.01578125 0.64453125 2.5390625 C0.03996094 3.22742188 -0.56460938 3.91578125 -1.1875 4.625 C-1.82558594 5.35074219 -2.46367188 6.07648438 -3.12109375 6.82421875 C-4.71033183 8.66456305 -6.23653963 10.53526082 -7.75 12.4375 C-10 15 -10 15 -13 16 C-11.3383196 11.87582937 -8.37661982 8.93445961 -5.375 5.75 C-4.859375 5.19570312 -4.34375 4.64140625 -3.8125 4.0703125 C-2.54574965 2.7097288 -1.27342185 1.35434163 0 0 Z " fill="#9BDFC7" transform="translate(677,127)"/>
<path d="M0 0 C0.66 0.33 1.32 0.66 2 1 C0.21427748 2.83947337 -1.57802449 4.67157741 -3.375 6.5 C-3.88289063 7.02464844 -4.39078125 7.54929687 -4.9140625 8.08984375 C-6.23832604 9.43153181 -7.61605865 10.71995815 -9 12 C-9.66 12 -10.32 12 -11 12 C-9.49650623 8.33213607 -7.36271208 6.31089607 -4.375 3.75 C-3.14910156 2.69039063 -3.14910156 2.69039063 -1.8984375 1.609375 C-1.27195312 1.07828125 -0.64546875 0.5471875 0 0 Z " fill="#C8CCCC" transform="translate(1313,274)"/>
<path d="M0 0 C2.60557491 0.28184585 5.20900398 0.57502711 7.8125 0.875 C8.55048828 0.95363281 9.28847656 1.03226562 10.04882812 1.11328125 C13.71506181 1.54460286 15.87951745 1.9196783 19 4 C12.1781317 4.38614349 6.50422293 3.00865708 0 1 C0 0.67 0 0.34 0 0 Z " fill="#95DDC3" transform="translate(1930,377)"/>
<path d="M0 0 C-5.98009978 3.82061931 -10.03495602 4.11608407 -17 4 C-14.04925888 2.43220483 -11.12880766 1.29925425 -7.9375 0.3125 C-7.08027344 0.04050781 -6.22304688 -0.23148437 -5.33984375 -0.51171875 C-3 -1 -3 -1 0 0 Z " fill="#9DE5CD" transform="translate(752,68)"/>
<path d="M0 0 C0.66 0.33 1.32 0.66 2 1 C-1.96 4.96 -5.92 8.92 -10 13 C-10.66 12.67 -11.32 12.34 -12 12 C-8.32167983 7.47384007 -4.58913637 3.60575001 0 0 Z " fill="#ffffff" transform="translate(136,92)"/>
<path d="M0 0 C0.33 0.66 0.66 1.32 1 2 C0.51789063 2.68707031 0.03578125 3.37414062 -0.4609375 4.08203125 C-1.09257813 4.98308594 -1.72421875 5.88414062 -2.375 6.8125 C-3.00148438 7.70582031 -3.62796875 8.59914063 -4.2734375 9.51953125 C-5.53550239 11.33267878 -6.77458808 13.16188211 -8 15 C-8.66 14.67 -9.32 14.34 -10 14 C-6.7 9.38 -3.4 4.76 0 0 Z " fill="#89D8BB" transform="translate(1597,318)"/>
<path d="M0 0 C0.66 0.33 1.32 0.66 2 1 C0.73657512 2.48549956 -0.5360103 3.96321189 -1.8125 5.4375 C-2.52019531 6.26121094 -3.22789063 7.08492188 -3.95703125 7.93359375 C-6 10 -6 10 -9 11 C-7.59155282 7.78475695 -5.89655214 5.67816132 -3.375 3.25 C-2.74335937 2.63640625 -2.11171875 2.0228125 -1.4609375 1.390625 C-0.73777344 0.70226562 -0.73777344 0.70226562 0 0 Z " fill="#DAF7EE" transform="translate(1786,275)"/>
<path d="M0 0 C0.66 0.33 1.32 0.66 2 1 C0.88200014 2.33920838 -0.24461897 3.67122556 -1.375 5 C-2.00148438 5.7425 -2.62796875 6.485 -3.2734375 7.25 C-4.12808594 8.11625 -4.12808594 8.11625 -5 9 C-5.66 9 -6.32 9 -7 9 C-7 9.66 -7 10.32 -7 11 C-7.66 11 -8.32 11 -9 11 C-7.59155282 7.78475695 -5.89655214 5.67816132 -3.375 3.25 C-2.74335938 2.63640625 -2.11171875 2.0228125 -1.4609375 1.390625 C-0.73777344 0.70226562 -0.73777344 0.70226562 0 0 Z " fill="#8CDCBE" transform="translate(2053,257)"/>
<path d="M0 0 C0.99 0 1.98 0 3 0 C2.85879286 1.93784265 2.71187127 3.87526955 2.5625 5.8125 C2.48128906 6.89144531 2.40007813 7.97039063 2.31640625 9.08203125 C2 12 2 12 1 15 C0.34 15 -0.32 15 -1 15 C-0.40380045 10.13103697 0.56976822 5.67209049 2 1 C1.34 0.67 0.68 0.34 0 0 Z " fill="#98E1CB" transform="translate(809,52)"/>
<path d="M0 0 C0.66 0.33 1.32 0.66 2 1 C0.92492371 2.29854721 -0.16043736 3.58858361 -1.25 4.875 C-1.85328125 5.59429687 -2.4565625 6.31359375 -3.078125 7.0546875 C-4.97087634 8.97052118 -6.53657727 9.96449045 -9 11 C-7.59155282 7.78475695 -5.89655214 5.67816132 -3.375 3.25 C-2.74335937 2.63640625 -2.11171875 2.0228125 -1.4609375 1.390625 C-0.73777344 0.70226562 -0.73777344 0.70226562 0 0 Z " fill="#DAF6EE" transform="translate(1935,273)"/>
<path d="M0 0 C0.66 0.33 1.32 0.66 2 1 C-1.63 4.63 -5.26 8.26 -9 12 C-9 7.8407692 -6.75316432 5.85455565 -4 3 C-1.6875 1.125 -1.6875 1.125 0 0 Z " fill="#C2C7C6" transform="translate(1078,273)"/>
<path d="M0 0 C0.66 0.33 1.32 0.66 2 1 C0.90344712 2.31886772 -0.20253423 3.62990057 -1.3125 4.9375 C-1.92738281 5.66839844 -2.54226562 6.39929688 -3.17578125 7.15234375 C-5 9 -5 9 -8 10 C-6.34908222 5.70761377 -3.26245434 3.1206085 0 0 Z " fill="#DEF8F0" transform="translate(2079,274)"/>
<path d="M0 0 C2.62187494 1.04874998 3.79371361 1.64931313 5.25 4.125 C5.4975 4.74375 5.745 5.3625 6 6 C5.34 6 4.68 6 4 6 C3.67 5.34 3.34 4.68 3 4 C1.02 4.33 -0.96 4.66 -3 5 C-2.01 3.35 -1.02 1.7 0 0 Z " fill="#DCF9F1" transform="translate(1644,310)"/>
<path d="M0 0 C-1.24663331 0.50833591 -2.49749387 1.00631145 -3.75 1.5 C-4.44609375 1.7784375 -5.1421875 2.056875 -5.859375 2.34375 C-8 3 -8 3 -12 3 C-12 2.34 -12 1.68 -12 1 C-3.96428571 -1.27678571 -3.96428571 -1.27678571 0 0 Z " fill="#D6F8EF" transform="translate(719,76)"/>
<path d="M0 0 C0.33 0.66 0.66 1.32 1 2 C0.109375 3.91015625 0.109375 3.91015625 -1.25 6.0625 C-1.90742187 7.13177734 -1.90742187 7.13177734 -2.578125 8.22265625 C-4 10 -4 10 -7 11 C-5.5140084 6.40693504 -3.14985318 3.56430755 0 0 Z " fill="#85D5B7" transform="translate(1561,368)"/>
<path d="M0 0 C-1.44077046 3.36179774 -3.24750021 5.59156268 -6 8 C-6.66 8 -7.32 8 -8 8 C-6.48291727 4.46014029 -4.24676932 0 0 0 Z " fill="#ffffff" transform="translate(1140,308)"/>
<path d="M0 0 C0.66 0.33 1.32 0.66 2 1 C-0.64 3.97 -3.28 6.94 -6 10 C-6 6.41087588 -5.33563446 5.89142971 -3 3.3125 C-2.443125 2.68988281 -1.88625 2.06726563 -1.3125 1.42578125 C-0.879375 0.95527344 -0.44625 0.48476563 0 0 Z " fill="#476A5F" transform="translate(374,475)"/>
<path d="M0 0 C0.66 0.33 1.32 0.66 2 1 C0.02 3.31 -1.96 5.62 -4 8 C-4.66 7.67 -5.32 7.34 -6 7 C-4.02 4.69 -2.04 2.38 0 0 Z " fill="#E3FAF5" transform="translate(746,179)"/>
<path d="M0 0 C0.99 0.33 1.98 0.66 3 1 C3 1.66 3 2.32 3 3 C-1.29 3 -5.58 3 -10 3 C-10 2.67 -10 2.34 -10 2 C-6.7 2 -3.4 2 0 2 C0 1.34 0 0.68 0 0 Z " fill="#56A58C" transform="translate(762,525)"/>
<path d="M0 0 C0.33 0 0.66 0 1 0 C1.36923077 7.50769231 1.36923077 7.50769231 -0.5 10 C-0.995 10.33 -1.49 10.66 -2 11 C-1.125 3.375 -1.125 3.375 0 0 Z " fill="#CFF4EA" transform="translate(785,156)"/>
<path d="M0 0 C2.4375 0.75 2.4375 0.75 5 2 C5.8125 4.125 5.8125 4.125 6 6 C5.01 6.495 5.01 6.495 4 7 C4 5.68 4 4.36 4 3 C2.68 2.67 1.36 2.34 0 2 C0 1.34 0 0.68 0 0 Z " fill="#95E2C6" transform="translate(675,120)"/>
</svg>
